<svg xmlns="http://www.w3.org/2000/svg" viewBox="-100 -1494.5 8081 2044.5" role="img" aria-label="journify"><g transform="scale(1,-1)"><g transform="translate(0,0)" fill="#1A1714"><path d="M472,185 Q472,132 487.5,83.0 Q503,34 523.0,-13.5 Q543,-61 558.5,-108.5 Q574,-156 574,-206 Q574,-324 488.0,-395.0 Q402,-466 256,-466 Q150,-466 79.0,-434.5 Q8,-403 -28.5,-352.0 Q-65,-301 -65,-241 Q-65,-172 -29.0,-137.0 Q7,-102 67,-102 Q125,-102 159.0,-140.5 Q193,-179 193,-242 L193,-298 Q193,-344 217.0,-367.5 Q241,-391 286,-391 Q336,-391 363.0,-363.5 Q390,-336 390,-283 Q390,-240 369.5,-199.0 Q349,-158 319.5,-118.0 Q290,-78 260.5,-37.5 Q231,3 210.5,45.0 Q190,87 190,132 L190,733 Q190,759 182.5,770.0 Q175,781 158,784 L105,788 Q87,792 79.0,801.0 Q71,810 71,824 Q71,841 80.5,851.0 Q90,861 117,871 L303,939 Q343,953 366.0,959.0 Q389,965 407,965 Q439,965 455.5,947.5 Q472,930 472,902 Z"/></g><g transform="translate(634,0)" fill="#1A1714"><path d="M600,970 Q755,970 872.0,907.0 Q989,844 1054.5,731.5 Q1120,619 1120,470 Q1120,329 1052.5,217.0 Q985,105 866.0,40.0 Q747,-25 590,-25 Q436,-25 319.5,39.0 Q203,103 137.0,215.5 Q71,328 71,475 Q71,618 138.5,729.5 Q206,841 325.0,905.5 Q444,970 600,970 Z M671,80 Q739,90 780.5,142.5 Q822,195 833.5,287.0 Q845,379 821,508 Q798,637 754.0,720.5 Q710,804 650.0,841.0 Q590,878 520,866 Q451,855 409.5,802.5 Q368,750 357.5,658.5 Q347,567 370,437 Q393,309 437.0,225.5 Q481,142 541.0,105.0 Q601,68 671,80 Z"/></g><g transform="translate(1825,0)" fill="#1A1714"><path d="M804,144 L804,193 L795,197 L795,733 Q795,758 787.5,769.5 Q780,781 763,784 L710,788 Q692,792 684.0,801.0 Q676,810 676,824 Q676,840 685.5,850.5 Q695,861 722,870 L908,938 Q946,952 969.5,958.5 Q993,965 1013,965 Q1044,965 1060.5,947.5 Q1077,930 1077,901 L1077,160 Q1077,129 1085.5,114.5 Q1094,100 1112,94 L1150,84 Q1169,78 1178.0,67.5 Q1187,57 1187,41 Q1187,22 1174.0,11.0 Q1161,0 1132,0 L931,0 Q877,0 840.5,40.5 Q804,81 804,144 Z M165,278 L165,733 Q165,758 157.0,769.5 Q149,781 132,784 L79,788 Q61,792 53.0,801.0 Q45,810 45,824 Q45,840 55.0,850.5 Q65,861 91,870 L278,938 Q317,953 340.0,959.0 Q363,965 380,965 Q413,965 429.5,947.5 Q446,930 446,901 L446,319 Q446,231 488.0,187.5 Q530,144 602,144 Q646,144 696.0,165.5 Q746,187 799,232 L839,267 L885,220 L846,185 Q720,69 626.0,22.0 Q532,-25 449,-25 Q321,-25 243.0,57.5 Q165,140 165,278 Z"/></g><g transform="translate(3082,0)" fill="#1A1714"><path d="M436,530 Q436,675 477.0,773.0 Q518,871 585.0,920.5 Q652,970 729,970 Q824,970 876.0,916.0 Q928,862 928,761 Q928,671 891.0,627.0 Q854,583 795,583 Q735,583 704.0,615.0 Q673,647 673,704 L673,740 Q672,772 658.0,787.5 Q644,803 612,803 Q577,803 544.5,774.0 Q512,745 491.5,686.0 Q471,627 471,535 Z M455,901 L471,674 L471,161 Q471,132 482.5,118.5 Q494,105 524,100 L610,87 Q633,83 644.5,72.0 Q656,61 656,42 Q656,22 641.5,11.0 Q627,0 600,0 L133,0 Q105,0 92.0,11.0 Q79,22 79,41 Q79,56 88.0,66.5 Q97,77 116,84 L155,94 Q173,100 181.5,114.5 Q190,129 190,160 L190,731 Q190,757 182.5,768.0 Q175,779 158,782 L105,786 Q87,790 79.0,799.0 Q71,808 71,822 Q71,839 81.0,849.0 Q91,859 117,869 L299,935 Q348,954 371.0,959.5 Q394,965 407,965 Q429,965 440.0,950.5 Q451,936 455,901 Z"/></g><g transform="translate(4039,0)" fill="#1A1714"><path d="M471,902 L471,160 Q471,129 480.0,115.0 Q489,101 507,94 L543,84 Q575,71 575,44 Q575,0 519,0 L133,0 Q105,0 92.0,11.0 Q79,22 79,41 Q79,56 87.5,66.5 Q96,77 115,84 L155,94 Q173,101 181.5,115.0 Q190,129 190,160 L190,733 Q190,759 182.5,770.0 Q175,781 158,784 L105,788 Q87,792 79.0,801.0 Q71,810 71,824 Q71,841 80.5,851.0 Q90,861 117,871 L303,939 Q341,953 364.0,959.0 Q387,965 408,965 Q439,965 455.0,947.5 Q471,930 471,902 Z M441,679 L395,726 L434,761 Q560,874 650.0,922.0 Q740,970 821,970 Q944,970 1012.0,887.5 Q1080,805 1095,668 L1151,163 Q1154,130 1162.0,115.0 Q1170,100 1189,94 L1224,84 Q1243,77 1252.0,66.5 Q1261,56 1261,41 Q1261,22 1248.0,11.0 Q1235,0 1206,0 L816,0 Q761,0 761,44 Q761,71 792,84 L830,94 Q849,101 859.5,116.0 Q870,131 866,163 L814,627 Q804,714 769.5,758.0 Q735,802 668,802 Q626,802 579.5,780.0 Q533,758 481,714 Z"/></g><g transform="translate(5316,0)" fill="#1A1714"><path d="M472,902 L472,160 Q472,129 480.5,114.5 Q489,100 507,94 L545,84 Q564,78 573.0,67.5 Q582,57 582,41 Q582,22 569.0,11.0 Q556,0 527,0 L133,0 Q105,0 92.0,11.0 Q79,22 79,41 Q79,56 88.0,66.5 Q97,77 116,84 L155,94 Q173,101 181.5,115.0 Q190,129 190,160 L190,733 Q190,759 182.5,770.0 Q175,781 158,784 L105,788 Q87,792 79.0,801.0 Q71,810 71,824 Q71,841 80.5,851.0 Q90,861 117,871 L303,939 Q342,953 365.5,959.0 Q389,965 405,965 Q439,965 455.5,947.5 Q472,930 472,902 Z M309,1118 Q229,1118 180.5,1159.5 Q132,1201 132,1268 Q132,1335 180.5,1375.5 Q229,1416 309,1416 Q390,1416 438.5,1375.5 Q487,1335 487,1268 Q487,1201 438.5,1159.5 Q390,1118 309,1118 Z"/></g><g transform="translate(5950,0)" fill="#1A1714"><path d="M515,161 Q515,132 526.5,116.0 Q538,100 563,97 L665,85 Q688,83 698.5,71.0 Q709,59 709,42 Q709,0 656,0 L148,0 Q124,0 110.0,11.0 Q96,22 96,40 Q96,58 106.5,69.0 Q117,80 139,86 L181,95 Q209,103 221.5,118.0 Q234,133 234,159 L234,755 Q234,775 224.0,788.0 Q214,801 187,811 L136,827 Q103,840 91.0,852.0 Q79,864 79,879 Q79,896 91.5,906.5 Q104,917 130,917 L295,917 L235,883 L235,915 Q235,944 219.0,970.5 Q203,997 182.0,1026.5 Q161,1056 145.0,1094.5 Q129,1133 129,1185 Q129,1307 218.5,1382.0 Q308,1457 466,1457 Q568,1457 638.0,1425.0 Q708,1393 744.5,1339.5 Q781,1286 781,1224 Q781,1160 747.5,1127.0 Q714,1094 660,1094 Q601,1094 566.0,1130.0 Q531,1166 531,1226 L531,1286 Q531,1334 505.0,1358.5 Q479,1383 433,1383 Q378,1382 349.5,1348.5 Q321,1315 321,1253 Q321,1207 338.0,1170.0 Q355,1133 381.5,1102.0 Q408,1071 434.0,1042.0 Q460,1013 477.0,983.0 Q494,953 494,919 L494,873 L462,917 L696,917 Q720,917 733.0,907.5 Q746,898 746,880 Q746,854 720.0,836.0 Q694,818 636,818 L515,818 Z"/></g><g transform="translate(6740,0)" fill="#1A1714"><path d="M694,146 L544,-124 L135,783 Q118,823 99.5,837.5 Q81,852 42,863 Q23,869 15.0,879.0 Q7,889 7,905 Q7,925 21.5,936.0 Q36,947 60,947 L508,947 Q533,947 547.0,936.0 Q561,925 561,905 Q561,889 552.0,879.0 Q543,869 520,864 L483,857 Q437,847 429.5,823.0 Q422,799 447,739 Z M504,-159 L568,-4 L603,66 L867,727 Q891,786 883.0,814.0 Q875,842 829,852 L788,861 Q766,867 756.5,878.0 Q747,889 747,905 Q747,925 761.0,936.0 Q775,947 799,947 L1083,947 Q1108,947 1122.0,936.0 Q1136,925 1136,905 Q1136,891 1127.5,880.5 Q1119,870 1097,862 Q1053,848 1029.0,824.5 Q1005,801 983,745 L626,-137 Q570,-271 522.0,-345.0 Q474,-419 419.0,-447.5 Q364,-476 286,-476 Q170,-476 102.5,-414.5 Q35,-353 35,-263 Q35,-198 66.5,-162.0 Q98,-126 150,-126 Q201,-126 228.5,-156.5 Q256,-187 273,-239 L286,-277 Q294,-313 312.0,-331.0 Q330,-349 353,-349 Q378,-349 399.0,-334.5 Q420,-320 445.5,-279.5 Q471,-239 504,-159 Z"/></g><circle cx="304.5" cy="1267.0" r="177.5" fill="#7A1A2A"/></g></svg>