<svg xmlns="http://www.w3.org/2000/svg" viewBox="0 0 512 512" role="img" aria-label="journify"><g transform="translate(256.0,256.0) scale(0.1714704343275772,-0.1714704343275772) translate(-254.5,-489.5)"><path d="M472,185 Q472,132 487.5,83.0 Q503,34 523.0,-13.5 Q543,-61 558.5,-108.5 Q574,-156 574,-206 Q574,-324 488.0,-395.0 Q402,-466 256,-466 Q150,-466 79.0,-434.5 Q8,-403 -28.5,-352.0 Q-65,-301 -65,-241 Q-65,-172 -29.0,-137.0 Q7,-102 67,-102 Q125,-102 159.0,-140.5 Q193,-179 193,-242 L193,-298 Q193,-344 217.0,-367.5 Q241,-391 286,-391 Q336,-391 363.0,-363.5 Q390,-336 390,-283 Q390,-240 369.5,-199.0 Q349,-158 319.5,-118.0 Q290,-78 260.5,-37.5 Q231,3 210.5,45.0 Q190,87 190,132 L190,733 Q190,759 182.5,770.0 Q175,781 158,784 L105,788 Q87,792 79.0,801.0 Q71,810 71,824 Q71,841 80.5,851.0 Q90,861 117,871 L303,939 Q343,953 366.0,959.0 Q389,965 407,965 Q439,965 455.5,947.5 Q472,930 472,902 Z" fill="#1A1714"/><circle cx="304.5" cy="1245" r="200" fill="#7A1A2A"/></g></svg>